<svg width="1016" height="527" viewBox="0 0 1016 527" fill="none" xmlns="http://www.w3.org/2000/svg">
<path d="M606.281 131.835C515.81 66.177 419.319 131.815 411 0.5H1016V459.593C1016 507.777 899.532 526.309 877.694 525.25C855.856 524.191 606.281 550.137 476.814 433.118C347.347 316.099 696.752 197.492 606.281 131.835Z" fill="#ADDADD"/>
<path d="M287.553 525.25C336.428 525.25 219.44 268.445 186.163 250.971C152.887 233.498 35.3783 250.971 19.7798 250.971C4.18142 250.971 -15.5767 525.25 19.7798 525.25H287.553Z" fill="#ADDADD"/>
<path d="M336.428 86.8274C336.428 111.714 23.4195 177.901 19.7798 162.016C16.1402 146.131 45.7772 23.8173 77.494 9.52092C109.211 -4.77548 186.163 86.8274 206.961 70.9425C227.759 55.0576 212.161 31.2303 236.598 33.3483C261.036 35.4662 336.428 61.941 336.428 86.8274Z" fill="#ADDADD"/>
</svg>
