<svg width="856" height="775" viewBox="0 0 856 775" fill="none" xmlns="http://www.w3.org/2000/svg">
<g id="undraw_home_run_oerh 1">
<path id="Vector 1" d="M270.245 500.804C-401.129 -319.787 462.066 185.811 673.241 75.6393C884.416 -34.5321 941.618 1321.39 270.245 500.804Z" fill="url(#paint0_linear)"/>
<g id="bat">
<path id="Vector" d="M816.626 23.4239C817.579 26.2467 818.045 29.2642 817.997 32.3008C817.948 35.3373 817.386 38.3322 816.343 41.1108C815.3 43.8894 813.797 46.3962 811.921 48.4852C810.046 50.5742 807.835 52.2036 805.419 53.2785L396.761 229L389 206.908L791.062 10.7519C793.446 9.58751 796.004 8.99204 798.585 9.00008C801.167 9.00812 803.722 9.61953 806.1 10.7987C808.479 11.9779 810.635 13.7014 812.442 15.8688C814.249 18.0363 815.671 20.6045 816.626 23.4239Z" fill="#2F3F40"/>
</g>
<g id="guy">
<path id="Vector_2" d="M591.66 255.12L533.32 316.97L403.06 224.2L412.56 196L523.82 248.75L571.48 196C571.48 196 593.69 223.29 591.66 255.12Z" fill="#535461"/>
<path id="Vector_3" opacity="0.1" d="M532.41 316.97L590.75 255.12C592.13 233.57 582.4 214.12 575.97 203.79C575.16 203.79 574.35 203.73 573.53 203.73H563.59L522.91 248.73L512.7 243.89C512.7 244.34 512.7 244.78 512.7 245.23V302.88L532.41 316.97Z" fill="black"/>
<path id="Vector_4" d="M513.12 425.2L628.63 629.85L782.34 696.24L801.44 678.05L661.37 545.26L634.99 426.11L513.12 425.2Z" fill="#009AA2"/>
<path id="Vector_5" opacity="0.1" d="M514.94 429.1L573.32 532.5L603.82 518.71C615.189 513.57 624.883 505.335 631.792 494.946C638.701 484.556 642.547 472.432 642.89 459.96L635.89 428.37L516.43 427.76L514.94 429.1Z" fill="black"/>
<path id="Vector_6" d="M515.54 425.5L339 580.66L305.71 751.11L337.32 750.53L428.56 595.29L602.91 516.5C611.073 512.812 618.407 507.514 624.473 500.922C630.538 494.33 635.209 486.581 638.206 478.139C641.203 469.698 642.463 460.738 641.913 451.798C641.362 442.857 639.01 434.12 635 426.11L515.54 425.5Z" fill="#009AA2"/>
<path id="Vector_7" opacity="0.1" d="M635.45 429.3L513.57 427.5V247.08C513.57 236.068 517.944 225.507 525.731 217.721C533.517 209.934 544.078 205.56 555.09 205.56H574.43C594.711 205.56 614.162 213.617 628.502 227.958C642.843 242.298 650.9 261.749 650.9 282.03L635.45 429.3Z" fill="black"/>
<path id="Vector_8" d="M635.45 427.5L513.57 425.68V245.26C513.57 234.248 517.944 223.687 525.731 215.901C533.517 208.114 544.078 203.74 555.09 203.74H574.43C584.472 203.74 594.416 205.718 603.694 209.561C612.972 213.404 621.402 219.037 628.502 226.138C635.603 233.238 641.236 241.668 645.079 250.946C648.922 260.224 650.9 270.168 650.9 280.21L635.45 427.5Z" fill="#808D95"/>
<path id="Vector_9" d="M355 766H284C284 756.187 285.927 746.776 289.358 739.837C292.789 732.898 297.442 729 302.294 729H351.805L355 766Z" fill="#535461"/>
<path id="Vector_10" d="M818 684.792L760.495 728C756.434 725.146 754.099 721.237 754.003 717.132C753.907 713.027 756.059 709.062 759.985 706.111L800.062 676L818 684.792Z" fill="#535461"/>
<path id="Vector_11" opacity="0.1" d="M650.46 282.41L572.24 344.26L513.12 312.85L518.84 261.66L559.51 276.04L589.95 250.91C614.56 230.6 652.18 248.83 650.58 280.7C650.547 281.267 650.507 281.837 650.46 282.41Z" fill="black"/>
<path id="Vector_12" d="M539.95 158.26H579.95V213.19C579.95 217.433 578.264 221.503 575.264 224.504C572.263 227.504 568.193 229.19 563.95 229.19H555.95C551.707 229.19 547.637 227.504 544.636 224.504C541.636 221.503 539.95 217.433 539.95 213.19V158.26Z" fill="#FCCEB9"/>
<path id="Vector_13" opacity="0.1" d="M539.95 192.6C552.993 196.533 566.907 196.533 579.95 192.6V160.08H539.95V192.6Z" fill="black"/>
<path id="Vector_14" d="M559.96 193.72C598.134 193.72 629.08 162.774 629.08 124.6C629.08 86.4261 598.134 55.48 559.96 55.48C521.786 55.48 490.84 86.4261 490.84 124.6C490.84 162.774 521.786 193.72 559.96 193.72Z" fill="#FFC0A4"/>
<path id="Vector_15" d="M503.031 88.1812C503.031 88.1812 522.618 127.725 540.806 119.927L568.694 201.199C568.694 201.199 593.184 219.3 607.732 185.208C622.28 151.116 657.927 123.837 636.101 96.5569C614.275 69.2771 616.826 72.6938 613.187 47.3633C609.548 22.0329 609.916 11.8043 576.452 9.87637C542.989 7.94847 522.626 7.92705 521.171 23.5109C519.715 39.0948 475.447 25.2567 503.031 88.1812Z" fill="#0D0603"/>
<path id="Vector_16" d="M541.49 229.2L579.97 203.93L591.79 216.47L566.32 241.93L541.49 229.2Z" fill="#535461"/>
<path id="Vector_17" d="M559.96 146.43C563.478 146.43 566.33 140.323 566.33 132.79C566.33 125.257 563.478 119.15 559.96 119.15C556.442 119.15 553.59 125.257 553.59 132.79C553.59 140.323 556.442 146.43 559.96 146.43Z" fill="#FCCEB9"/>
<path id="Vector_18" opacity="0.1" d="M650.46 278.77L572.24 340.62L397.61 247.85L410.34 219.65L559.5 272.4L589.94 247.27C614.55 226.96 652.17 245.19 650.57 277.06C650.543 277.633 650.507 278.203 650.46 278.77Z" fill="black"/>
<path id="Vector_19" d="M650.46 280.59L572.24 342.44L397.61 249.66L410.34 221.5L559.5 274.22L589.94 249.09C614.55 228.78 652.17 247.01 650.57 278.88C650.543 279.453 650.507 280.023 650.46 280.59Z" fill="#808D95"/>
<path id="Vector_20" d="M398.06 250.12C398.06 250.12 358.25 240.87 369.06 215.03C379.87 189.19 410.79 221.93 410.79 221.93L398.06 250.12Z" fill="#FFBFA3"/>
<path id="Vector_21" d="M418.07 195.5C418.07 195.5 414.32 211.86 393 205.04C393 205.09 398.06 190.09 418.07 195.5Z" fill="#FFC2A7"/>
</g>
<g id="ball">
<path id="Vector_22" d="M107.46 211.92C125.939 211.92 140.92 196.939 140.92 178.46C140.92 159.981 125.939 145 107.46 145C88.9806 145 74 159.981 74 178.46C74 196.939 88.9806 211.92 107.46 211.92Z" fill="url(#paint1_linear)"/>
<path id="Vector_23" d="M107.46 210.11C124.94 210.11 139.11 195.94 139.11 178.46C139.11 160.98 124.94 146.81 107.46 146.81C89.9802 146.81 75.81 160.98 75.81 178.46C75.81 195.94 89.9802 210.11 107.46 210.11Z" fill="#F0F0F0"/>
<path id="Vector_24" d="M80.43 161.82C80.43 161.82 92.15 185.88 80.99 195.96" stroke="#6C63FF" stroke-miterlimit="10"/>
<path id="Vector_25" d="M80.59 165.55L81.81 166.46C82.3254 165.434 83.1658 164.608 84.2 164.11" stroke="#6C63FF" stroke-width="0.5" stroke-miterlimit="10" stroke-linecap="round"/>
<path id="Vector_26" d="M81.12 168.22C81.9851 168.523 82.7358 169.085 83.27 169.83C83.6154 168.599 84.4355 167.556 85.55 166.93" stroke="#6C63FF" stroke-width="0.5" stroke-miterlimit="10" stroke-linecap="round"/>
<path id="Vector_27" d="M82.95 171.9C83.668 172.227 84.2285 172.823 84.51 173.56C85.268 172.63 86.1008 171.764 87 170.97" stroke="#6C63FF" stroke-width="0.5" stroke-miterlimit="10" stroke-linecap="round"/>
<path id="Vector_28" d="M83.58 175.18C84.0074 175.445 84.3707 175.801 84.6439 176.223C84.9171 176.645 85.0934 177.122 85.16 177.62C85.8882 176.595 86.875 175.78 88.02 175.26" stroke="#6C63FF" stroke-width="0.5" stroke-miterlimit="10" stroke-linecap="round"/>
<path id="Vector_29" d="M84.05 179.62C84.2532 179.587 84.4617 179.614 84.6499 179.697C84.8382 179.781 84.998 179.917 85.11 180.09C85.3281 180.441 85.4742 180.832 85.54 181.24C86.5326 180.079 87.8777 179.275 89.37 178.95" stroke="#6C63FF" stroke-width="0.5" stroke-miterlimit="10" stroke-linecap="round"/>
<path id="Vector_30" d="M84.61 182.1C84.8551 182.325 85.0449 182.604 85.1646 182.914C85.2843 183.225 85.3306 183.559 85.3 183.89L89.24 182.55" stroke="#6C63FF" stroke-width="0.5" stroke-miterlimit="10" stroke-linecap="round"/>
<path id="Vector_31" d="M84.34 186.35C84.6741 186.829 84.8994 187.375 85 187.95C86.1299 187.33 87.3279 186.844 88.57 186.5" stroke="#6C63FF" stroke-width="0.5" stroke-miterlimit="10" stroke-linecap="round"/>
<path id="Vector_32" d="M83.41 189.31C83.5245 190.178 83.5613 191.055 83.52 191.93C84.9734 191.617 86.44 191.357 87.92 191.15" stroke="#6C63FF" stroke-width="0.5" stroke-miterlimit="10" stroke-linecap="round"/>
<path id="Vector_33" d="M134.49 161.82C134.49 161.82 122.77 185.88 133.93 195.96" stroke="#6C63FF" stroke-miterlimit="10"/>
<path id="Vector_34" d="M134.33 165.55L133.11 166.46C132.595 165.434 131.754 164.608 130.72 164.11" stroke="#6C63FF" stroke-width="0.5" stroke-miterlimit="10" stroke-linecap="round"/>
<path id="Vector_35" d="M133.81 168.22C132.945 168.523 132.194 169.085 131.66 169.83C131.315 168.599 130.494 167.556 129.38 166.93" stroke="#6C63FF" stroke-width="0.5" stroke-miterlimit="10" stroke-linecap="round"/>
<path id="Vector_36" d="M132 171.9C131.282 172.227 130.722 172.823 130.44 173.56C129.682 172.63 128.849 171.764 127.95 170.97" stroke="#6C63FF" stroke-width="0.5" stroke-miterlimit="10" stroke-linecap="round"/>
<path id="Vector_37" d="M131.34 175.18C130.913 175.445 130.549 175.801 130.276 176.223C130.003 176.645 129.827 177.122 129.76 177.62C129.032 176.595 128.045 175.78 126.9 175.26" stroke="#6C63FF" stroke-width="0.5" stroke-miterlimit="10" stroke-linecap="round"/>
<path id="Vector_38" d="M130.87 179.62C130.667 179.587 130.458 179.614 130.27 179.697C130.082 179.781 129.922 179.917 129.81 180.09C129.592 180.441 129.446 180.832 129.38 181.24C128.387 180.079 127.042 179.275 125.55 178.95" stroke="#6C63FF" stroke-width="0.5" stroke-miterlimit="10" stroke-linecap="round"/>
<path id="Vector_39" d="M130.31 182.1C130.065 182.325 129.875 182.604 129.755 182.914C129.636 183.225 129.589 183.559 129.62 183.89L125.68 182.55" stroke="#6C63FF" stroke-width="0.5" stroke-miterlimit="10" stroke-linecap="round"/>
<path id="Vector_40" d="M130.59 186.35C130.256 186.829 130.031 187.375 129.93 187.95C128.8 187.33 127.602 186.844 126.36 186.5" stroke="#6C63FF" stroke-width="0.5" stroke-miterlimit="10" stroke-linecap="round"/>
<path id="Vector_41" d="M131.52 189.31C131.406 190.178 131.369 191.055 131.41 191.93C129.957 191.617 128.49 191.357 127.01 191.15" stroke="#6C63FF" stroke-width="0.5" stroke-miterlimit="10" stroke-linecap="round"/>
</g>
</g>
<defs>
<linearGradient id="paint0_linear" x1="803.559" y1="782.388" x2="-156.678" y2="118.096" gradientUnits="userSpaceOnUse">
<stop offset="0.223958" stop-color="#727475"/>
<stop offset="0.848958" stop-color="#00AAB5"/>
</linearGradient>
<linearGradient id="paint1_linear" x1="2313.14" y1="11360.8" x2="2313.14" y2="6881.84" gradientUnits="userSpaceOnUse">
<stop stop-color="#808080" stop-opacity="0.25"/>
<stop offset="0.54" stop-color="#808080" stop-opacity="0.12"/>
<stop offset="1" stop-color="#808080" stop-opacity="0.1"/>
</linearGradient>
</defs>
</svg>
